PathFileType	4	(X/Y/Z)	/home/abdul/Desktop/myosuite/custom_workspace/IK/output/S16_12_1.trc
DataRate	CameraRate	NumFrames	NumMarkers	Units	OrigDataRate	OrigDataStartFrame	OrigNumFrames
200.0	200.0	68	3	mm	200.0	305	1216
Frame#	Time	V_Shoulder			V_Elbow			V_Wrist		
		X1	Y1	Z1	X2	Y2	Z2	X3	Y3	Z3

305	1.52	-77.47607477604635	553.2258572448786	302.10385880435416	-223.50261292474727	405.14102785553007	51.25227626695686	-95.55391260759626	188.6312309320702	40.12717186929096
306	1.525	-77.46235063628374	553.0939768086299	302.0829347328193	-223.47337911109338	405.0360973540401	51.18034069913065	-95.47934906387907	188.46606969369765	39.93737005490387
307	1.53	-77.45416319441638	552.9698195172364	302.0617412675808	-223.4552801607219	404.9480230790378	51.10422704092107	-95.40682363038863	188.31719765731464	39.763940198315815
308	1.535	-77.45153847740254	552.8535030099333	302.04032781137704	-223.4484718489628	404.8772513108395	51.02385059225795	-95.33609965219742	188.1855230141952	39.60833154832129
309	1.54	-77.45450190548935	552.7451468525522	302.0187458669274	-223.45308986848931	404.8242094645826	50.93913017977739	-95.26693876515898	188.07196111528347	39.472021428120144
310	1.545	-77.46307824529488	552.6448723439233	301.99704889560854	-223.46924877732425	404.7893046561193	50.84998844812891	-95.19910102327998	187.9774326890601	39.35651174743853
311	1.55	-77.47729156015129	552.5528023094568	301.97529217135235	-223.49704100109665	404.7729222957754	50.75635216339959	-95.13234506225396	187.90286201989102	39.263325379989645
312	1.555	-77.4971651577104	552.4690608824235	301.95353263026703	-223.53653589434967	404.77542471461084	50.65815252798629	-95.06642829961284	187.84917509013812	39.19400241563176
313	1.56	-77.5227215348291	552.3937732734962	301.93182871648264	-223.5877788655475	404.7971498278452	50.55532550611367	-95.00110717169973	187.81729768954577	39.150096297141104
314	1.565	-77.55398231976716	552.3270655291507	301.9102402247224	-223.65079057025912	404.8384098401226	50.447812159065386	-94.93613740741125	187.8081534956455	39.13316985205346
315	1.57	-77.59096821174623	552.2690642795618	301.8888281400964	-223.72556617679922	404.89948999728284	50.335558989068865	-94.87127433839838	187.8226621291418	39.144791230538985
316	1.575	-77.633698917935	552.2198964766667	301.8676544756157	-223.8120747083899	404.98064738927616	50.21851829065149	-94.80627324515443	187.86173718845544	39.186529760756564
317	1.58	-77.68219308794052	552.1796891230971	301.84678210791316	-223.9102584656676	405.0821098088087	50.09664850816887	-94.74088973815878	187.92628426780527	39.25995173358395
318	1.585	-77.73646824590254	552.1485689927175	301.8262746116577	-224.02003253309942	405.20407467023665	49.969914598094434	-94.67488017298629	188.01719896339972	39.36661612903535
319	1.59	-77.79654072030256	552.126662343533	301.8061960931365	-224.14128437259308	405.3467079931325	49.838288394555704	-94.60800209803782	188.13536487248894	39.508070297056484
320	1.595	-77.86242557161495	552.1140946237532	301.7866110234733	-224.27387350728486	405.5101434548343	49.70174897650536	-94.5400147332973	188.28165159019204	39.68584560572502
321	1.6	-77.93413651794212	552.1109901718331	301.76758407193955	-224.41763129817213	405.69448151615313	49.5602830348272	-94.47067947827844	188.45691270916126	39.901453070180764
322	1.605	-78.0116858587909	552.1174719113201	301.7491799398061	-224.57236081592168	405.89978862425517	49.41388523759771	-94.3997604470887	188.66198382727416	40.15637897586066
323	1.61	-78.0950843971604	552.1336610413688	301.73146319517065	-224.7378368098356	406.1260964965544	49.262558591654155	-94.32702502831461	188.89768056865614	40.45208050981803
324	1.615	-78.18434136012621	552.1596767237917	301.7144981091822	-224.91380577558863	406.3734014892539	49.10631479856039	-94.25224446721853	189.16479662342442	40.78998141406059
325	1.62	-78.2794643181177	552.195635767533	301.6983484940737	-225.09998612297437	406.64166405394894	48.94517460301299	-94.17519446753738	189.4641018116136	41.17146767494601
326	1.625	-78.38045910309818	552.241652311464	301.68307754339475	-225.29606844450723	406.9308082854642	48.779168131692344	-94.0956558099871	189.7963401767874	41.5978832627258
327	1.63	-78.48732972586832	552.2978375064065	301.66874767482824	-225.50171588532663	407.2407215638356	48.6083352205371	-94.01341498440748	190.16222811486296	42.07052593532643
328	1.635	-78.60007829272486	552.3642991972944	301.6554203759522	-225.7165646144432	407.5712542930654	48.43272572840574	-93.9282648323273	190.56245254367144	42.59064312039936
329	1.64	-78.71870492171506	552.4411416063928	301.6431560532969	-225.94022439695084	407.9222197389793	48.25239983508695	-93.84000519659502	190.99766911875017	43.15942788955962
330	1.645	-78.84320765873765	552.5284650184867	301.63201388503035	-226.17227926641237	408.2933939682026	48.06742832162976	-93.74844357460327	191.46850050080727	43.77801503856318
331	1.65	-78.97358239374775	552.6263654689541	301.62205167758526	-226.41228829620258	408.68451588993526	47.87789283098679	-93.65339577153914	191.97553468022107	44.44747728694789
332	1.655	-79.10982277733072	552.7349344356318	301.6133257265281	-226.6597864681741	409.09528740186397	47.68388610699788	-93.554686550016	192.5193233638292	45.168821610380746
333	1.66	-79.25192013791568	552.8542585353716	301.6058906819503	-226.9142856365905	409.52537364118814	47.485512209788354	-93.45215027238831	193.10038042913118	45.942985718615546
334	1.665	-79.39986339990391	552.9844192261781	301.5997994186456	-227.17527558485403	409.9744033413678	47.2828867057142	-93.34563153201827	193.71918045086989	46.77083469157108
335	1.67	-79.55363900299149	553.1254925158013	301.5951029113195	-227.44222517214797	410.4419692948203	47.07613683005752	-93.23498576975294	194.37615730477427	47.65315778559114
336	1.675	-79.71323082296749	553.277548677643	301.5918501150585	-227.71458356670774	410.9276289214051	46.86540162075703	-93.12007987188264	195.07170285303658	48.59066542144548
337	1.68	-79.878620094271	553.4406519748168	301.5900878512701	-227.99178156204573	411.4309049421412	46.650832021552006	-93.0007927458872	195.80616571586637	49.58398636507704
338	1.685	-80.04978533459014	553.6148603931782	301.589860699286	-228.27323297207155	411.9512861572024	46.43259095302187	-92.8770158703332	196.579850133207	50.633665111496555
339	1.69	-80.22670227178565	553.8002253841197	301.59121089380415	-228.5583361006847	412.48822832683527	46.210853350117965	-92.74865381536718	197.393014920423	51.740159481574096
340	1.695	-80.40934377341932	553.9967916178949	301.5941782283266	-228.84647528106467	413.04115515344085	45.98580616490768	-92.61562473035119	198.24587252146975	52.90383844078042
341	1.7	-80.59767977916447	554.204596748213	301.59879996473416	-229.13702247955143	413.60945936266194	45.75764833338462	-92.47786079531207	199.13858816273756	54.12498014819123
342	1.705	-80.79167723637156	554.4236711888028	301.60511074912205	-229.42933895869487	414.1925038809204	45.52659070533908	-92.33530863302161	200.07127911042903	55.40377024328872
343	1.71	-80.99130003905623	554.6540379026276	301.6131425340013	-229.7227769937606	414.7896231064584	45.292855936432666	-92.18792967868995	201.04401403397634	56.74030037727999
344	1.715	-81.19650897057079	554.8957122043776	301.6229245069585	-230.01668163670976	415.4001242705507	45.05667834177628	-92.03570050444154	202.05681247764124	58.13456699480386
345	1.72	-81.40726165021287	555.1487015768461	301.63448302584544	-230.31039252142722	416.0232888851848	44.81830371047254	-91.87861309594564	203.1096444420628	59.586470371021235
346	1.725	-81.6235124840157	555.413005501743	301.6478415605589	-230.6032457037521	416.6583742731382	44.577989080750406	-91.71667507879692	204.202430077132	61.09581390818243
347	1.73	-81.84521261995536	555.688615305468	301.6630206414519	-230.89457552967568	417.3046151760378	44.33600247549096	-91.54990989247759	205.3350394871777	62.66230369484251
348	1.735	-82.07230990779982	555.9755140203134	301.6800378144042	-231.1837165249064	417.961225435649	44.09262259811738	-91.37835690998745	206.50729264904777	64.28554832995616
349	1.74	-82.30474886381275	556.2736762615325	301.6989076025662	-231.4700052988701	418.62739974332675	43.84813848899881	-91.2020715014929	207.7189594432664	65.96505901313246
350	1.745	-82.54247064051279	556.5830681206525	301.7196414747736	-231.75278245610926	419.302315452264	43.6028491426956	-91.02112504062507	208.96975979804614	67.70024990137016
351	1.75	-82.78541300167613	556.9036470753755	301.74224782061873	-232.03139450797346	419.9851344468961	43.35706308655166	-90.83560485234527	210.2593639455276	69.49043873163144
352	1.755	-83.03351030275552	557.235361916353	301.76673193215004	-232.30519577745164	420.67500506356384	43.11109792131736	-90.64561410159376	211.5873927892244	71.3348477076505
353	1.76	-83.2866934768749	557.5781526910788	301.7930959921585	-232.57355028998995	421.3710640563096	42.865279824661805	-90.4512716222411	212.95341838125694	73.23260464841741
354	1.765	-83.54489002654313	557.93195066509	301.82133906899685	-232.83583364316007	422.0724386014727	42.61994301860737	-90.25271168617117	214.35696450757467	75.18274439483194
355	1.77	-83.8080240212139	558.2966783006203	301.8514571178669	-233.09143484810107	422.7782483345729	42.37542920208861	-90.05008371263719	215.7975073789936	77.18421047009139
356	1.775	-84.0760161008037	558.6722492527975	301.88344298849717	-233.33975813574398	423.4876074128176	42.13208695000323	-89.84355191834547	217.27447642551618	79.23585698846409
357	1.78	-84.3487834852612	559.0585683834273	301.91728643912313	-233.58022472094797	424.1996265964459	41.89027108028239	-89.63329490903571	218.78725519105348	81.33645080621292
358	1.785	-84.62623999026557	559.4555317923533	301.95297415667073	-233.81227451782928	424.9134153420255	41.650341990661644	-89.4195052136374	220.335182325343	83.4846739075713
359	1.79	-84.90829604911242	559.8630268663384	301.9904897830352	-234.03536779974394	425.6280839007562	41.41266496697995	-89.20238876238895	221.91755266954428	85.67912601784592
360	1.795	-85.19485874082916	560.2809323453542	302.02981394733564	-234.2489867975977	426.3427454147975	41.17760946497316	-88.9821643106074	223.5336184317045	87.91832743492621
361	1.8	-85.48583182454281	560.7091184061259	302.07092430401843	-234.45263723039687	427.0565180046322	40.94554836765823	-88.75906281008909	225.18259044802	90.20072206972651
362	1.805	-85.78111578010557	561.1474467627219	302.1137955766722	-234.645849762222	427.7685268405064	40.71685722052529	-88.53332673040684	226.86363952557383	92.524680685374
363	1.81	-86.08060785496484	561.5957707839383	302.15839960740897	-234.82818138010015	428.47790619104	40.491913446865325	-88.30520933264025	228.5758978620097	94.88850432429001
364	1.815	-86.38420211724696	562.0539356271737	302.2047054116595	-234.99921668757239	429.1838014421902	40.271095545661765	-88.07497389833648	230.31846053740793	97.29042791169314
365	1.82	-86.69178951500504	562.5217783884497	302.25267923822133	-235.1585691090955	429.88537107986565	40.054782274563365	-87.84289291674429	232.09038707346056	99.72862402348669
366	1.825	-87.003257941564	562.9991282681859	302.3022846343913	-235.30588200078202	430.5817886296356	39.84335182053386	-87.60924723359372	233.89070305490202	102.20120680597917
367	1.83	-87.31849230687801	563.4858067522954	302.3534825160098	-235.44082966336788	431.2722445471521	39.63718096083979	-87.3743251649064	235.71840180803522	104.70623603442851
368	1.835	-87.63737461479855	563.9816278081236	302.40623124223316	-235.5631182537004	431.95594805310475	39.43664421709192	-87.13842157951626	237.57244613110794	107.2417212969998
369	1.84	-87.95978404613345	564.4863980947193	302.46048669484907	-235.67248659145798	432.6321289067562	39.24211300509721	-86.90183695415456	239.4517700712339	109.80562629038425
370	1.845	-88.28559704736215	564.9999171868799	302.5162023619415	-235.76870685824665	433.30003911236173	39.05395478330777	-86.6648764051084	241.35528074252088	112.3958732130441
371	1.85	-88.61468742485489	565.5219778123859	302.5733294257071	-235.85158518666307	433.95895455305094	38.87253220266934	-86.42784870059388	243.28186018006244	115.01034724182514
372	1.855	-88.9469264444295	566.0523661017988	302.63181685421966	-235.9209621373691	434.6081765470541	38.698202260676105	-86.19106525809701	245.23036722447077	117.64690107751764
